HIERARCHY
ROOT joint_0
{
	OFFSET 0.000000 0.000000 0.000000
	CHANNELS 6 Xposition Yposition Zposition Zrotation Yrotation Xrotation 
	JOINT joint_1
	{
		OFFSET 0.511002 1.944000 108.288940
		CHANNELS 3 Zrotation Yrotation Xrotation
		JOINT joint_2
		{
			OFFSET -9.074005 1.512993 98.440063
			CHANNELS 3 Zrotation Yrotation Xrotation
			JOINT joint_3
			{
				OFFSET -8.590996 1.815002 98.366943
				CHANNELS 3 Zrotation Yrotation Xrotation
				JOINT joint_4
				{
					OFFSET 2.489998 3.531998 136.462036
					CHANNELS 3 Zrotation Yrotation Xrotation
					JOINT joint_5
					{
						OFFSET 22.708000 2.955002 80.357056
						CHANNELS 3 Zrotation Yrotation Xrotation
						End Site
						{
							OFFSET 0.000000 0.000000 0.000000
						}
					}
				}
				JOINT joint_6
				{
					OFFSET 2.860001 -27.684998 77.234009
					CHANNELS 3 Zrotation Yrotation Xrotation
					JOINT joint_7
					{
						OFFSET 5.449997 -131.244003 -18.851929
						CHANNELS 3 Zrotation Yrotation Xrotation
						JOINT joint_8
						{
							OFFSET 35.757000 -24.661995 -264.074097
							CHANNELS 3 Zrotation Yrotation Xrotation
							JOINT joint_9
							{
								OFFSET 49.392001 -1.747002 -239.960938
								CHANNELS 3 Zrotation Yrotation Xrotation
								End Site
								{
									OFFSET 0.000000 0.000000 0.000000
								}
							}
						}
					}
				}
				JOINT joint_10
				{
					OFFSET -0.127998 31.625000 75.753052
					CHANNELS 3 Zrotation Yrotation Xrotation
					JOINT joint_11
					{
						OFFSET -5.618004 131.132996 -19.557007
						CHANNELS 3 Zrotation Yrotation Xrotation
						JOINT joint_12
						{
							OFFSET 46.488998 30.127991 -261.826050
							CHANNELS 3 Zrotation Yrotation Xrotation
							JOINT joint_13
							{
								OFFSET 66.021003 0.474030 -235.934937
								CHANNELS 3 Zrotation Yrotation Xrotation
								End Site
								{
									OFFSET 0.000000 0.000000 0.000000
								}
							}
						}
					}
				}
			}
		}
	}
	JOINT joint_14
	{
		OFFSET 15.887001 -78.871004 -94.561035
		CHANNELS 3 Zrotation Yrotation Xrotation
		JOINT joint_15
		{
			OFFSET -4.133003 6.714001 -473.615967
			CHANNELS 3 Zrotation Yrotation Xrotation
			JOINT joint_16
			{
				OFFSET -19.541000 5.340000 -399.613007
				CHANNELS 3 Zrotation Yrotation Xrotation
				JOINT joint_17
				{
					OFFSET 164.317001 41.657999 -73.195000
					CHANNELS 3 Zrotation Yrotation Xrotation
					End Site
					{
						OFFSET 0.000000 0.000000 0.000000
					}
				}
			}
		}
	}
	JOINT joint_18
	{
		OFFSET 6.513000 77.960991 -96.406982
		CHANNELS 3 Zrotation Yrotation Xrotation
		JOINT joint_19
		{
			OFFSET -10.660004 -8.518997 -473.485016
			CHANNELS 3 Zrotation Yrotation Xrotation
			JOINT joint_20
			{
				OFFSET -36.967995 -11.098999 -398.260010
				CHANNELS 3 Zrotation Yrotation Xrotation
				JOINT joint_21
				{
					OFFSET 166.067997 30.363998 -74.785000
					CHANNELS 3 Zrotation Yrotation Xrotation
					End Site
					{
						OFFSET 0.000000 0.000000 0.000000
					}
				}
			}
		}
	}
}
MOTION
Frames: 18
Frame Time: 0.016667
-1958.301636 900.934326 1060.182983 -4.258435 2.687995 0.338691 -0.562030 0.314850 0.777306 -0.640127 -0.084772 -0.161024 -0.614731 0.074078 0.156505 -1.144104 -0.061789 4.138223 0.000000 0.000000 0.000000 1.158998 -1.677511 -1.532431 -0.554005 -1.503564 -3.120909 -0.337928 -1.888394 -1.778309 0.000000 0.000000 0.000000 -3.204765 0.223906 -0.334203 0.570139 0.743220 -1.445214 1.249197 -2.183959 4.344948 0.000000 0.000000 0.000000 -0.140021 -4.198976 -3.087645 -0.125155 1.582865 -0.463317 -0.181786 -0.517201 0.050589 0.000000 0.000000 0.000000 1.190623 -4.046788 4.062335 1.202014 -0.396418 -0.636183 1.064065 2.221387 0.069371 0.000000 0.000000 0.000000 
-1958.273926 900.845520 1060.155029 -4.264053 2.619966 0.337701 -0.566422 0.343257 0.806810 -0.647312 -0.087238 -0.168561 -0.620736 0.077125 0.163318 -1.100193 -0.064807 3.976854 0.000000 0.000000 0.000000 1.138025 -1.620163 -1.531264 -0.560970 -1.449737 -3.151305 -0.325184 -1.920104 -1.718539 0.000000 0.000000 0.000000 -3.201032 0.188470 -0.327488 0.574253 0.708803 -1.414320 1.203886 -2.371461 4.192907 0.000000 0.000000 0.000000 -0.141632 -4.160293 -3.077806 -0.125860 1.665828 -0.470915 -0.185542 -0.567615 0.061700 0.000000 0.000000 0.000000 1.190388 -3.996359 4.071297 1.202115 -0.337438 -0.637254 1.065997 2.188474 0.076258 0.000000 0.000000 0.000000 
-1958.246948 900.764954 1060.129028 -4.257501 2.553628 0.342343 -0.568630 0.387900 0.848296 -0.653311 -0.091363 -0.178102 -0.625350 0.082547 0.171212 -1.045886 -0.129667 3.785510 0.000000 0.000000 0.000000 1.124086 -1.565039 -1.531729 -0.570155 -1.397156 -3.193054 -0.312199 -1.963162 -1.658130 0.000000 0.000000 0.000000 -3.200768 0.163252 -0.317980 0.579964 0.685111 -1.388063 1.154368 -2.580924 4.025573 0.000000 0.000000 0.000000 -0.147153 -4.125006 -3.074294 -0.130413 1.754786 -0.479397 -0.193344 -0.622317 0.072106 0.000000 0.000000 0.000000 1.186082 -3.948830 4.073587 1.198039 -0.279616 -0.637985 1.063884 2.157721 0.080939 0.000000 0.000000 0.000000 
-1958.188232 900.674988 1060.109009 -4.235858 2.504938 0.352549 -0.569910 0.408693 0.888685 -0.658721 -0.092077 -0.187780 -0.629296 0.083660 0.178366 -0.988082 -0.198944 3.582213 0.000000 0.000000 0.000000 1.124054 -1.509566 -1.533495 -0.577555 -1.341758 -3.220781 -0.307173 -1.971291 -1.633939 0.000000 0.000000 0.000000 -3.198620 0.147056 -0.315718 0.585053 0.670644 -1.355603 1.106831 -2.757746 3.864143 0.000000 0.000000 0.000000 -0.157074 -4.099588 -3.075629 -0.139514 1.830926 -0.489436 -0.205368 -0.672476 0.079492 0.000000 0.000000 0.000000 1.177595 -3.915386 4.071243 1.189705 -0.233151 -0.641396 1.057055 2.133653 0.082287 0.000000 0.000000 0.000000 
-1958.085205 900.569275 1060.094971 -4.197690 2.483926 0.371152 -0.571665 0.393400 0.923502 -0.664611 -0.091675 -0.196692 -0.633698 0.079798 0.185300 -0.927398 -0.270569 3.369192 0.000000 0.000000 0.000000 1.146153 -1.451062 -1.539635 -0.581795 -1.279154 -3.220714 -0.314286 -1.927851 -1.665267 0.000000 0.000000 0.000000 -3.189842 0.141052 -0.322690 0.588403 0.666034 -1.310720 1.059186 -2.890086 3.701918 0.000000 0.000000 0.000000 -0.171930 -4.092081 -3.083571 -0.153746 1.889925 -0.502994 -0.222160 -0.716727 0.083272 0.000000 0.000000 0.000000 1.164867 -3.904632 4.061534 1.176905 -0.201778 -0.648006 1.045156 2.117137 0.079984 0.000000 0.000000 0.000000 
-1957.950928 900.455078 1060.087036 -4.144757 2.480679 0.395567 -0.572102 0.354091 0.956592 -0.669482 -0.087638 -0.205692 -0.636938 0.071708 0.192263 -0.862697 -0.348820 3.142964 0.000000 0.000000 0.000000 1.180377 -1.392409 -1.547746 -0.584083 -1.214156 -3.206040 -0.329310 -1.848911 -1.732687 0.000000 0.000000 0.000000 -3.179487 0.143654 -0.336924 0.590686 0.670199 -1.260124 1.013219 -2.988841 3.545056 0.000000 0.000000 0.000000 -0.191208 -4.094880 -3.096700 -0.172546 1.936540 -0.517903 -0.243179 -0.756670 0.084090 0.000000 0.000000 0.000000 1.147966 -3.908017 4.046656 1.159829 -0.181975 -0.656866 1.028556 2.107642 0.074292 0.000000 0.000000 0.000000 
-1957.787109 900.331787 1060.076050 -4.079759 2.479897 0.416630 -0.568992 0.295300 0.985532 -0.670487 -0.081188 -0.211622 -0.636678 0.060219 0.197001 -0.798191 -0.385408 2.912267 0.000000 0.000000 0.000000 1.212329 -1.337956 -1.553733 -0.584299 -1.153999 -3.190022 -0.347368 -1.739400 -1.812669 0.000000 0.000000 0.000000 -3.175738 0.151769 -0.356891 0.591396 0.680447 -1.218503 0.980477 -3.035833 3.433391 0.000000 0.000000 0.000000 -0.214356 -4.089134 -3.108458 -0.195521 1.965881 -0.527421 -0.267557 -0.790425 0.081853 0.000000 0.000000 0.000000 1.126884 -3.908638 4.037697 1.139075 -0.173346 -0.668735 1.007807 2.102023 0.066035 0.000000 0.000000 0.000000 
-1957.584473 900.199402 1060.062988 -4.003837 2.481783 0.431355 -0.560140 0.210556 1.007532 -0.665093 -0.071894 -0.212067 -0.630853 0.044885 0.196481 -0.736580 -0.362771 2.684414 0.000000 0.000000 0.000000 1.236054 -1.288877 -1.554604 -0.581079 -1.101083 -3.173699 -0.368502 -1.583923 -1.904544 0.000000 0.000000 0.000000 -3.183067 0.165123 -0.383238 0.590602 0.697087 -1.188371 0.965742 -3.019794 3.383799 0.000000 0.000000 0.000000 -0.241391 -4.070344 -3.117623 -0.222861 1.968741 -0.526984 -0.294968 -0.813470 0.075559 0.000000 0.000000 0.000000 1.101224 -3.904250 4.038167 1.114407 -0.179500 -0.683880 0.982548 2.101675 0.054796 0.000000 0.000000 0.000000 
-1957.353271 900.057617 1060.046997 -3.915898 2.485722 0.442811 -0.547188 0.106648 1.024575 -0.655209 -0.058892 -0.208747 -0.620969 0.025185 0.193307 -0.675210 -0.300046 2.452514 0.000000 0.000000 0.000000 1.254336 -1.244198 -1.553267 -0.575462 -1.053689 -3.155470 -0.392459 -1.397613 -2.008646 0.000000 0.000000 0.000000 -3.198256 0.183622 -0.414327 0.587827 0.719507 -1.167922 0.964161 -2.951187 3.379757 0.000000 0.000000 0.000000 -0.272267 -4.042521 -3.125184 -0.254347 1.954062 -0.521507 -0.325715 -0.830183 0.066183 0.000000 0.000000 0.000000 1.071363 -3.896759 4.044464 1.086044 -0.196816 -0.701982 0.953130 2.105098 0.041006 0.000000 0.000000 0.000000 
-1957.123657 899.911011 1060.026001 -3.814541 2.475853 0.452762 -0.534387 0.007912 1.042211 -0.645718 -0.047365 -0.208090 -0.611100 0.006885 0.192296 -0.612147 -0.205109 2.210809 0.000000 0.000000 0.000000 1.274112 -1.203541 -1.550849 -0.572063 -1.010301 -3.147173 -0.414174 -1.235699 -2.103821 0.000000 0.000000 0.000000 -3.215147 0.204468 -0.446195 0.582878 0.743570 -1.162156 0.973273 -2.848082 3.412558 0.000000 0.000000 0.000000 -0.307521 -4.001342 -3.129940 -0.290093 1.946354 -0.518105 -0.360976 -0.851222 0.055904 0.000000 0.000000 0.000000 1.037040 -3.877055 4.053170 1.053571 -0.211763 -0.720037 0.919837 2.107736 0.025626 0.000000 0.000000 0.000000 
-1956.896973 899.760376 1059.995972 -3.700303 2.442672 0.461043 -0.521436 -0.079073 1.061044 -0.636288 -0.034958 -0.210171 -0.600965 -0.010249 0.192331 -0.548464 -0.074189 1.962790 0.000000 0.000000 0.000000 1.293020 -1.166410 -1.546505 -0.572198 -0.970720 -3.151135 -0.432871 -1.112453 -2.186842 0.000000 0.000000 0.000000 -3.235009 0.226175 -0.474504 0.574665 0.767141 -1.182084 0.997500 -2.704580 3.497180 0.000000 0.000000 0.000000 -0.346275 -3.937642 -3.131362 -0.329217 1.948096 -0.518184 -0.400063 -0.878891 0.045610 0.000000 0.000000 0.000000 0.998380 -3.834539 4.064089 1.017365 -0.224515 -0.737391 0.883111 2.107396 0.009256 0.000000 0.000000 0.000000 
-1956.671509 899.604004 1059.959961 -3.572727 2.395321 0.467763 -0.508329 -0.161271 1.078664 -0.626617 -0.021769 -0.212790 -0.590338 -0.027678 0.194507 -0.482853 0.089390 1.704392 0.000000 0.000000 0.000000 1.311145 -1.133034 -1.542180 -0.574624 -0.935117 -3.164375 -0.449398 -1.014162 -2.260764 0.000000 0.000000 0.000000 -3.258472 0.250368 -0.503660 0.564611 0.792826 -1.216957 1.032827 -2.527336 3.619588 0.000000 0.000000 0.000000 -0.389347 -3.859976 -3.129879 -0.372556 1.956317 -0.520457 -0.443611 -0.910682 0.034383 0.000000 0.000000 0.000000 0.955160 -3.779443 4.077573 0.976965 -0.234753 -0.754793 0.842430 2.105791 -0.008652 0.000000 0.000000 0.000000 
-1956.471924 899.436829 1059.918945 -3.427989 2.344183 0.473608 -0.498304 -0.234443 1.098816 -0.620326 -0.011981 -0.218005 -0.582869 -0.041349 0.197965 -0.413040 0.256414 1.431594 0.000000 0.000000 0.000000 1.327551 -1.106827 -1.538108 -0.579457 -0.906992 -3.187409 -0.461456 -0.953705 -2.314793 0.000000 0.000000 0.000000 -3.275180 0.275850 -0.532198 0.554137 0.819080 -1.243779 1.063551 -2.349074 3.725950 0.000000 0.000000 0.000000 -0.438409 -3.787113 -3.123747 -0.421425 1.984254 -0.528834 -0.493478 -0.951983 0.022769 0.000000 0.000000 0.000000 0.906505 -3.731552 4.093621 0.930802 -0.229036 -0.773414 0.796583 2.098386 -0.027812 0.000000 0.000000 0.000000 
-1956.310913 899.258850 1059.871948 -3.262356 2.292792 0.478793 -0.494466 -0.301101 1.124202 -0.620926 -0.005985 -0.227280 -0.581733 -0.052777 0.204791 -0.335662 0.433735 1.131601 0.000000 0.000000 0.000000 1.346071 -1.088178 -1.536344 -0.587547 -0.886141 -3.223616 -0.468056 -0.939211 -2.344285 0.000000 0.000000 0.000000 -3.278749 0.302518 -0.564053 0.543047 0.845333 -1.254276 1.085469 -2.170830 3.802056 0.000000 0.000000 0.000000 -0.495100 -3.726244 -3.111888 -0.477293 2.038165 -0.545973 -0.551412 -1.005132 0.010586 0.000000 0.000000 0.000000 0.851478 -3.698048 4.112387 0.877743 -0.203348 -0.794005 0.744519 2.085308 -0.048719 0.000000 0.000000 0.000000 
-1956.175781 899.070007 1059.821045 -3.079520 2.238117 0.482819 -0.493191 -0.360937 1.151537 -0.624283 -0.000571 -0.237884 -0.583174 -0.062001 0.212879 -0.253970 0.616948 0.816748 0.000000 0.000000 0.000000 1.361381 -1.076108 -1.535058 -0.598336 -0.872378 -3.270264 -0.470316 -0.963392 -2.354232 0.000000 0.000000 0.000000 -3.278379 0.330368 -0.596352 0.531686 0.872577 -1.255585 1.102746 -1.991051 3.862143 0.000000 0.000000 0.000000 -0.557798 -3.670953 -3.095308 -0.538689 2.112052 -0.568899 -0.615643 -1.066976 -0.002181 0.000000 0.000000 0.000000 0.790954 -3.672496 4.133929 0.818852 -0.161478 -0.815824 0.687222 2.066765 -0.070968 0.000000 0.000000 0.000000 
-1956.060181 898.870422 1059.767944 -2.886414 2.179435 0.485356 -0.491038 -0.398192 1.175957 -0.625746 0.000853 -0.245568 -0.583259 -0.067179 0.219336 -0.173121 0.762067 0.511024 0.000000 0.000000 0.000000 1.369537 -1.071114 -1.534191 -0.609855 -0.866630 -3.318250 -0.468730 -1.015997 -2.346481 0.000000 0.000000 0.000000 -3.282058 0.361879 -0.619688 0.522668 0.904438 -1.249120 1.112075 -1.842165 3.895041 0.000000 0.000000 0.000000 -0.624325 -3.619283 -3.075894 -0.603569 2.203070 -0.593364 -0.683908 -1.137605 -0.014508 0.000000 0.000000 0.000000 0.726915 -3.653958 4.157779 0.756013 -0.100640 -0.837275 0.626751 2.039997 -0.093134 0.000000 0.000000 0.000000 
-1955.969360 898.659363 1059.714966 -2.684465 2.113631 0.484345 -0.485802 -0.405616 1.200131 -0.623185 -0.000208 -0.250124 -0.579989 -0.067558 0.222779 -0.092254 0.854107 0.212998 0.000000 0.000000 0.000000 1.359712 -1.075848 -1.530887 -0.622013 -0.873256 -3.368338 -0.462792 -1.101445 -2.318855 0.000000 0.000000 0.000000 -3.299280 0.398053 -0.631246 0.517347 0.943517 -1.232892 1.110839 -1.739379 3.891964 0.000000 0.000000 0.000000 -0.693827 -3.569696 -3.052426 -0.671035 2.314145 -0.617619 -0.755303 -1.217042 -0.025988 0.000000 0.000000 0.000000 0.659625 -3.642152 4.185956 0.689398 -0.014491 -0.857934 0.563511 2.001648 -0.114420 0.000000 0.000000 0.000000 
-1955.897095 898.437866 1059.661987 -2.472377 2.045131 0.481359 -0.479299 -0.394429 1.223073 -0.618616 -0.002353 -0.252261 -0.575247 -0.064168 0.223515 -0.012177 0.910276 -0.076919 0.000000 0.000000 0.000000 1.342938 -1.087475 -1.526476 -0.635183 -0.887770 -3.421127 -0.453170 -1.215769 -2.274389 0.000000 0.000000 0.000000 -3.322166 0.437685 -0.634179 0.514473 0.987325 -1.207527 1.101581 -1.666674 3.861605 0.000000 0.000000 0.000000 -0.766926 -3.525308 -3.025883 -0.741738 2.442512 -0.643148 -0.830459 -1.303717 -0.037297 0.000000 0.000000 0.000000 0.588869 -3.638729 4.216806 0.618881 0.090486 -0.878276 0.497120 1.955520 -0.135691 0.000000 0.000000 0.000000 
